<?xml version="1.0" standalone="no"?>
<!DOCTYPE svg PUBLIC "-//W3C//DTD SVG 20010904//EN"
 "http://www.w3.org/TR/2001/REC-SVG-20010904/DTD/svg10.dtd">
<svg version="1.0" xmlns="http://www.w3.org/2000/svg"
 width="500.000000pt" height="500.000000pt" viewBox="0 0 500.000000 500.000000"
 preserveAspectRatio="xMidYMid meet">
<metadata>
Created by potrace 1.11, written by Peter Selinger 2001-2013
</metadata>
<g transform="translate(0.000000,500.000000) scale(0.100000,-0.100000)"
fill="#000000" stroke="none">
<path d="M435 4376 c-16 -7 -38 -23 -48 -34 -47 -52 -46 -28 -47 -1247 -1
-632 -5 -1159 -10 -1170 -7 -15 -9 -10 -9 24 -1 24 -3 42 -6 40 -2 -3 -9 -275
-16 -605 -9 -455 -9 -613 0 -656 14 -67 61 -126 123 -156 l43 -21 2035 0 2035
0 43 21 c62 30 109 89 123 157 9 43 9 191 0 656 -6 329 -14 601 -16 604 -3 2
-5 -15 -5 -39 0 -24 -3 -40 -7 -36 -5 4 -10 537 -13 1184 -5 1154 -5 1178 -25
1211 -11 19 -33 43 -48 55 l-28 21 -2047 2 c-1684 2 -2052 0 -2077 -11z m1080
-856 l0 -72 -310 -119 c-170 -65 -316 -119 -322 -119 -9 0 -13 21 -13 74 0 72
1 74 28 84 192 67 408 146 414 151 4 3 -94 41 -218 85 l-224 79 0 72 c0 39 2
74 5 77 3 3 148 -50 323 -117 l317 -123 0 -72z m633 -442 l-3 -63 -312 -3
-313 -2 0 65 0 65 315 0 316 0 -3 -62z"/>
</g>
</svg>
